<svg width="182" height="220" viewBox="0 0 182 220" fill="none" xmlns="http://www.w3.org/2000/svg">
<g clip-path="url(#clip0_704_1525)">
<path d="M27.3347 178.965C12.2368 178.965 0 166.725 0 151.635V60.4953C0 45.3935 12.2368 33.1536 27.3347 33.1536C42.4326 33.1536 54.6693 45.3935 54.6693 60.4953V151.624C54.6693 166.725 42.4326 178.965 27.3347 178.965Z" fill="url(#paint0_linear_704_1525)"/>
<path d="M53.932 54.2322C51.1039 42.1574 40.2647 33.1646 27.3347 33.1646C12.2368 33.1646 0 45.4045 0 60.4953V151.624C0 158.998 2.91614 165.68 7.65899 170.6C6.56956 154.992 8.15418 139.152 12.2918 124.051C19.5216 97.6114 34.3664 73.4507 53.932 54.2322Z" fill="url(#paint1_linear_704_1525)"/>
<path d="M154.666 178.965C139.568 178.965 127.331 166.725 127.331 151.624V60.4953C127.331 45.3935 139.568 33.1536 154.666 33.1536C169.764 33.1536 182 45.3935 182 60.4953V151.624C182 166.725 169.764 178.965 154.666 178.965Z" fill="url(#paint2_linear_704_1525)"/>
<path d="M181.274 54.2322C178.446 42.1574 167.607 33.1646 154.676 33.1646C139.579 33.1646 127.342 45.4045 127.342 60.5063V151.635C127.342 159.009 130.258 165.691 135.001 170.611C133.911 155.003 135.496 139.163 139.634 124.062C146.863 97.6114 161.708 73.4507 181.274 54.2322Z" fill="url(#paint3_linear_704_1525)"/>
<path d="M90.6315 74.1992C105.729 74.1992 117.966 86.4392 117.966 101.541V192.669C117.966 207.771 105.729 220.011 90.6315 220.011C75.5336 220.011 63.2969 207.771 63.2969 192.669V101.53C63.3079 86.4392 75.5447 74.1992 90.6315 74.1992Z" fill="url(#paint4_linear_704_1525)"/>
<path d="M64.0342 198.932C66.8623 211.007 77.7015 220 90.6316 220C105.729 220 117.966 207.76 117.966 192.658V101.53C117.966 94.1553 115.05 87.4739 110.307 82.5537C111.397 98.1619 109.812 114.001 105.674 129.103C98.4446 155.553 83.5998 179.714 64.0342 198.932Z" fill="url(#paint5_linear_704_1525)"/>
<path d="M90.631 45.3715C103.157 45.3715 113.311 35.2147 113.311 22.6857C113.311 10.1568 103.157 0 90.631 0C78.1053 0 67.9512 10.1568 67.9512 22.6857C67.9512 35.2147 78.1053 45.3715 90.631 45.3715Z" fill="url(#paint6_linear_704_1525)"/>
<path d="M69.3047 30.3798C70.6802 34.2103 73.1012 37.7105 76.5125 40.4403C86.3173 48.2444 100.579 46.6153 108.37 36.8079C111.847 32.4381 113.443 27.1767 113.289 21.9923C112.089 23.7755 110.714 25.4486 109.14 26.9235C101.69 33.9791 90.675 36.907 80.6171 34.9037C76.6115 34.1002 72.782 32.5262 69.3047 30.3798Z" fill="url(#paint7_linear_704_1525)"/>
</g>
<defs>
<linearGradient id="paint0_linear_704_1525" x1="0" y1="106.066" x2="54.6642" y2="106.066" gradientUnits="userSpaceOnUse">
<stop stop-color="white"/>
<stop offset="0.9961" stop-color="white"/>
</linearGradient>
<linearGradient id="paint1_linear_704_1525" x1="-0.780535" y1="91.7984" x2="38.2793" y2="110.238" gradientUnits="userSpaceOnUse">
<stop stop-color="white"/>
<stop offset="0.9961" stop-color="white"/>
</linearGradient>
<linearGradient id="paint2_linear_704_1525" x1="127.339" y1="106.066" x2="182.003" y2="106.066" gradientUnits="userSpaceOnUse">
<stop stop-color="white"/>
<stop offset="0.9961" stop-color="white"/>
</linearGradient>
<linearGradient id="paint3_linear_704_1525" x1="126.558" y1="91.7983" x2="165.618" y2="110.238" gradientUnits="userSpaceOnUse">
<stop stop-color="white"/>
<stop offset="0.9961" stop-color="white"/>
</linearGradient>
<linearGradient id="paint4_linear_704_1525" x1="117.968" y1="147.099" x2="63.3042" y2="147.099" gradientUnits="userSpaceOnUse">
<stop stop-color="white"/>
<stop offset="0.9961" stop-color="white"/>
</linearGradient>
<linearGradient id="paint5_linear_704_1525" x1="118.749" y1="161.366" x2="79.6891" y2="142.926" gradientUnits="userSpaceOnUse">
<stop stop-color="white"/>
<stop offset="0.9961" stop-color="white"/>
</linearGradient>
<linearGradient id="paint6_linear_704_1525" x1="86.0458" y1="-1.7082" x2="96.7002" y2="54.8789" gradientUnits="userSpaceOnUse">
<stop stop-color="white"/>
<stop offset="0.9961" stop-color="white"/>
</linearGradient>
<linearGradient id="paint7_linear_704_1525" x1="97.0933" y1="47.1065" x2="92.2771" y2="29.7193" gradientUnits="userSpaceOnUse">
<stop stop-color="white"/>
<stop offset="0.9961" stop-color="white"/>
</linearGradient>
<clipPath id="clip0_704_1525">
<rect width="182" height="220" fill="white"/>
</clipPath>
</defs>
</svg>
