<svg width="227" height="249" viewBox="0 0 227 249" fill="none" xmlns="http://www.w3.org/2000/svg">
<g clip-path="url(#clip0_92_1171)">
<path opacity="0.42" d="M114.47 246.48C176.597 246.48 226.96 234.709 226.96 220.19C226.96 205.67 176.597 193.9 114.47 193.9C52.344 193.9 1.98047 205.67 1.98047 220.19C1.98047 234.709 52.344 246.48 114.47 246.48Z" fill="url(#paint0_radial_92_1171)"/>
<path d="M123.17 221.37L171.03 120.62L115.48 178.45L123.17 221.37Z" fill="url(#paint1_linear_92_1171)"/>
<path d="M18.6904 26.1299L54.2604 64.0499L43.3104 143.49L18.6904 26.1299Z" fill="url(#paint2_linear_92_1171)"/>
<path d="M133.2 49.91L153.41 2L54.2598 64.05L133.2 49.91Z" fill="url(#paint3_linear_92_1171)"/>
<path d="M171.03 120.62L153.41 2L133.2 49.91L171.03 120.62Z" fill="url(#paint4_linear_92_1171)"/>
<path d="M171.03 120.62L217.97 122.67L123.17 221.37L171.03 120.62Z" fill="url(#paint5_linear_92_1171)"/>
<path d="M153.41 2L171.03 120.62L217.97 122.67L153.41 2Z" fill="url(#paint6_linear_92_1171)"/>
<path d="M54.2604 64.05L153.41 2L18.6904 26.13L54.2604 64.05Z" fill="url(#paint7_linear_92_1171)"/>
<path d="M0 161.7L43.31 143.49L18.69 26.1299L0 161.7Z" fill="url(#paint8_linear_92_1171)"/>
<path d="M123.17 221.37L43.3096 143.49L115.48 178.45L123.17 221.37Z" fill="url(#paint9_linear_92_1171)"/>
<path d="M123.17 221.37L43.31 143.49L0 161.7L123.17 221.37Z" fill="url(#paint10_linear_92_1171)"/>
<path d="M18.6904 26.1299L133.2 49.9099L54.2604 64.0499L18.6904 26.1299Z" fill="url(#paint11_linear_92_1171)"/>
<path d="M171.03 120.62L123.17 221.37L43.3104 143.49L18.6904 26.13L92.4604 39.87L153.41 2L171.03 120.62Z" stroke="url(#paint12_linear_92_1171)" stroke-width="2" stroke-miterlimit="10"/>
<path d="M171.03 120.62L153.41 2" stroke="url(#paint13_linear_92_1171)" stroke-width="2" stroke-miterlimit="10"/>
<path d="M43.3104 143.49L18.6904 26.1299" stroke="url(#paint14_linear_92_1171)" stroke-width="2" stroke-miterlimit="10"/>
<path opacity="0.13" d="M112.94 246.99C175.067 246.99 225.43 235.219 225.43 220.7C225.43 206.18 175.067 194.41 112.94 194.41C50.8137 194.41 0.450195 206.18 0.450195 220.7C0.450195 235.219 50.8137 246.99 112.94 246.99Z" fill="url(#paint15_radial_92_1171)"/>
</g>
<defs>
<radialGradient id="paint0_radial_92_1171" cx="0" cy="0" r="1" gradientUnits="userSpaceOnUse" gradientTransform="translate(120.417 221.774) rotate(0.207004) scale(101.886 11.8999)">
<stop/>
<stop offset="0.9374" stop-opacity="0"/>
</radialGradient>
<linearGradient id="paint1_linear_92_1171" x1="151.57" y1="115.82" x2="125.406" y2="221.922" gradientUnits="userSpaceOnUse">
<stop stop-color="#F15A00"/>
<stop offset="1" stop-color="#F7941E"/>
</linearGradient>
<linearGradient id="paint2_linear_92_1171" x1="43.9355" y1="32.3523" x2="18.0656" y2="137.262" gradientUnits="userSpaceOnUse">
<stop stop-color="#F15A00"/>
<stop offset="1" stop-color="#F7941E"/>
</linearGradient>
<linearGradient id="paint3_linear_92_1171" x1="165.235" y1="38.4066" x2="78.6834" y2="30.8194" gradientUnits="userSpaceOnUse">
<stop stop-color="#F15A00"/>
<stop offset="1" stop-color="#F7941E"/>
</linearGradient>
<linearGradient id="paint4_linear_92_1171" x1="135.411" y1="-29.1338" x2="152.97" y2="91.127" gradientUnits="userSpaceOnUse">
<stop stop-color="#F15A00"/>
<stop offset="1" stop-color="#F7941E"/>
</linearGradient>
<linearGradient id="paint5_linear_92_1171" x1="184.759" y1="114.477" x2="156.381" y2="229.56" gradientUnits="userSpaceOnUse">
<stop stop-color="#FFCE00"/>
<stop offset="1" stop-color="#F7941E"/>
</linearGradient>
<linearGradient id="paint6_linear_92_1171" x1="197.865" y1="12.9659" x2="171.302" y2="120.686" gradientUnits="userSpaceOnUse">
<stop stop-color="#FFCE00"/>
<stop offset="1" stop-color="#F7941E"/>
</linearGradient>
<linearGradient id="paint7_linear_92_1171" x1="83.9542" y1="2.38124" x2="92.9399" y2="52.5489" gradientUnits="userSpaceOnUse">
<stop stop-color="#FFCE00"/>
<stop offset="1" stop-color="#F7941E"/>
</linearGradient>
<linearGradient id="paint8_linear_92_1171" x1="43.9351" y1="32.3523" x2="11.3493" y2="164.496" gradientUnits="userSpaceOnUse">
<stop stop-color="#FFCE00"/>
<stop offset="1" stop-color="#F7941E"/>
</linearGradient>
<linearGradient id="paint9_linear_92_1171" x1="90.0034" y1="155.001" x2="76.4766" y2="209.856" gradientUnits="userSpaceOnUse">
<stop stop-color="#F15A00"/>
<stop offset="1" stop-color="#F7941E"/>
</linearGradient>
<linearGradient id="paint10_linear_92_1171" x1="71.7044" y1="150.489" x2="58.1776" y2="205.344" gradientUnits="userSpaceOnUse">
<stop stop-color="#FFCE00"/>
<stop offset="1" stop-color="#F7941E"/>
</linearGradient>
<linearGradient id="paint11_linear_92_1171" x1="50.9408" y1="80.8515" x2="84.2637" y2="23.7607" gradientUnits="userSpaceOnUse">
<stop stop-color="#F15A00"/>
<stop offset="1" stop-color="#F7941E"/>
</linearGradient>
<linearGradient id="paint12_linear_92_1171" x1="173.021" y1="105.58" x2="36.2447" y2="130.079" gradientUnits="userSpaceOnUse">
<stop offset="0.0103" stop-color="white" stop-opacity="0"/>
<stop offset="0.5034" stop-color="white"/>
<stop offset="0.9517" stop-color="white" stop-opacity="0"/>
</linearGradient>
<linearGradient id="paint13_linear_92_1171" x1="164.958" y1="60.8208" x2="159.482" y2="61.8016" gradientUnits="userSpaceOnUse">
<stop offset="0.0103" stop-color="white" stop-opacity="0"/>
<stop offset="0.5034" stop-color="white"/>
<stop offset="0.9517" stop-color="white" stop-opacity="0"/>
</linearGradient>
<linearGradient id="paint14_linear_92_1171" x1="33.7324" y1="84.3177" x2="28.2687" y2="85.2963" gradientUnits="userSpaceOnUse">
<stop offset="0.0103" stop-color="white" stop-opacity="0"/>
<stop offset="0.5034" stop-color="white"/>
<stop offset="0.9517" stop-color="white" stop-opacity="0"/>
</linearGradient>
<radialGradient id="paint15_radial_92_1171" cx="0" cy="0" r="1" gradientUnits="userSpaceOnUse" gradientTransform="translate(122.409 222.282) scale(92.2518 7.83868)">
<stop/>
<stop offset="0.8697" stop-opacity="0"/>
</radialGradient>
<clipPath id="clip0_92_1171">
<rect width="226.96" height="248.99" fill="white"/>
</clipPath>
</defs>
</svg>
