<svg width="190" height="269" viewBox="0 0 190 269" fill="none" xmlns="http://www.w3.org/2000/svg">
<rect width="190" height="269" fill="#F5F5F5"/>
<g id="mainWrapper" clip-path="url(#clip0_0_3)">
<rect width="1920" height="9616" transform="translate(-1598 -3711)" fill="white"/>
<g id="practice-section">
<rect width="1920" height="2264.15" transform="translate(-1598 40)" fill="#0174BE"/>
<g id="practice-item-wrapper">
</g>
<g id="shape-4" clip-path="url(#clip1_0_3)">
<g id="Group">
<g id="Group_2">
<path id="Vector" d="M128.342 128.205L157.728 102.77L152.075 64.3001L182.779 37.7082C184.097 36.5514 186.098 36.7094 187.255 38.0275C188.413 39.3456 188.256 41.345 186.938 42.5018L158.856 66.8183L164.508 105.288L135.123 130.723L140.775 169.193L111.382 194.647L117.035 233.116L86.3309 259.708C85.0127 260.865 83.0124 260.707 81.8547 259.389C80.6971 258.071 80.8544 256.071 82.1726 254.915L110.254 230.598L104.602 192.129L133.995 166.674L128.342 128.205Z" fill="#FFC436"/>
</g>
<g id="Group_3">
<path id="Vector_2" d="M102.058 118.443L131.444 93.0081L125.791 54.5385L156.514 27.9537C157.832 26.7969 159.833 26.955 160.99 28.273C162.148 29.5911 161.991 31.5905 160.672 32.7473L132.591 57.0638L138.243 95.5334L108.857 120.969L114.51 159.438L85.1172 184.892L90.7699 223.362L60.0658 249.954C58.7476 251.111 56.7473 250.953 55.5896 249.634C54.4319 248.316 54.5893 246.317 55.9075 245.16L83.9894 220.844L78.3366 182.374L107.73 156.92L102.058 118.443Z" fill="#FFC436"/>
</g>
<g id="Group_4">
<path id="Vector_3" d="M75.7931 108.689L105.179 83.2536L99.5263 44.784L130.23 18.1921C131.549 17.0354 133.549 17.1934 134.707 18.5115C135.864 19.8296 135.707 21.829 134.389 22.9857L106.307 47.3022L111.96 85.7718L82.5737 111.207L88.2265 149.677L58.8335 175.131L64.4863 213.6L33.7821 240.192C32.4639 241.349 30.4636 241.191 29.3059 239.873C28.1482 238.555 28.3056 236.555 29.6238 235.399L57.7057 211.082L52.0529 172.613L81.4459 147.158L75.7931 108.689Z" fill="#FFC436"/>
</g>
<g id="Group_5">
<path id="Vector_4" d="M49.5275 98.9345L78.9134 73.4993L73.2607 35.0297L103.965 8.43782C105.283 7.28108 107.283 7.43909 108.441 8.75717C109.599 10.0753 109.441 12.0747 108.123 13.2314L80.0413 37.5479L85.694 76.0175L56.3081 101.453L61.9609 139.922L32.5679 165.376L38.2206 203.846L7.5165 230.438C6.19829 231.595 4.19798 231.437 3.0403 230.119C1.88262 228.801 2.03998 226.801 3.35819 225.644L31.433 201.347L25.7873 162.858L55.1803 137.404L49.5275 98.9345Z" fill="#FFC436"/>
</g>
</g>
</g>
</g>
<g id="services-section">
<rect width="1920" height="1228" transform="translate(-1598 -1178)" fill="#F2F7F2"/>
</g>
</g>
<defs>
<clipPath id="clip0_0_3">
<rect width="1920" height="9616" fill="white" transform="translate(-1598 -3711)"/>
</clipPath>
<clipPath id="clip1_0_3">
<rect width="110" height="245" fill="white" transform="translate(86.2334 0.0979919) rotate(20.3742)"/>
</clipPath>
</defs>
</svg>
